<?xml version="1.0" encoding="utf-8"?>
<!-- Generator: Adobe Illustrator 24.1.3, SVG Export Plug-In . SVG Version: 6.00 Build 0)  -->
<svg version="1.1" id="Layer_1" xmlns="http://www.w3.org/2000/svg" xmlns:xlink="http://www.w3.org/1999/xlink" x="0px" y="0px"
	 viewBox="0 0 339 159" style="enable-background:new 0 0 339 159;" xml:space="preserve">
<style type="text/css">
	.st0{fill:#F5E4E5;}
</style>
<g id="Layer_2_3_">
	<g id="Layer_1-2_2_">
		<path class="st0" d="M6.2,64.4c22.7,3.4,45.8,4,68.7,1.7c10.7-1.1,21.5-2.4,31.9-5c7.8-2,15.8-4.9,22.5-9.6
			c7.8-5.6,13-13.1,14-22.8c0.6-6.1-9.4-7.4-10.7-1.4c-4.5,20.7-6.7,41.9-6.5,63.2c0.1,10.6,1.4,21,1.9,31.5
			c0.3,6.9-0.5,17.2-8.3,19.8c-5.9,2-10.3-4.2-12.1-9c-2.5-6.6-1.8-13.9,0.4-20.5c4.5-13.8,16.4-25.1,30.5-28.6
			c9.1-2.2,18.5-0.4,27.5,0.8c9.3,1.2,19,1.7,27.9-1.8c15.6-6.2,28-21.8,27.3-39.2c-0.4-9-4.6-18-13-22.2
			c-7.9-3.9-17.6-3.2-23.8,3.5c-11.9,12.9-6.5,32.9,5.5,43.7c14.5,13,35.4,12.4,53.4,9c19.5-3.8,38.4-10.3,58.2-4.5
			c4.5,1.3,8.9,3.2,13.1,5.5c6.6,3.6,12.4-6.3,5.9-10c-8.6-4.9-18-8-27.8-9.1c-9.8-1.2-19.6-0.1-29.3,1.9
			c-17.9,3.6-37.1,10.6-55.2,4.6c-11.6-3.8-24.6-19.1-16.2-31.5c3.8-5.6,11.3-4.2,14.9,1c4.2,6.1,3,14.9-0.2,21.1
			c-3.3,6.6-8.8,11.9-15.6,14.9c-7.9,3.5-16.9,2.6-25.2,1.5c-9.6-1.3-19.1-2.8-28.7-0.8c-7.5,1.6-14.6,4.9-20.6,9.6
			c-12.8,9.7-21.6,24.8-22.1,41c-0.5,14.6,9.1,33.6,26.3,30.8c8.4-1.4,14.6-8.7,17.2-16.5c3.2-9.6,1-20.1,0.3-29.8
			c-1.5-20.6-0.7-41.3,2.4-61.7c0.8-5.1,1.7-10.1,2.8-15.1l-10.7-1.5c-1.4,13.5-18.1,19.5-29.3,22.2C83.6,55.6,63,57,43,56.9
			c-11.9-0.1-23.7-0.8-35.5-2.3C2,53.9,0.6,63.6,6.2,64.4z"/>
		<path class="st0" d="M330.6,85.3c4.9,0,4.9-7.7,0-7.7C325.7,77.7,325.7,85.3,330.6,85.3z"/>
		<path class="st0" d="M140.3,13c6.1,0,6.1-9.5,0-9.5S134.2,13,140.3,13z"/>
	</g>
</g>
</svg>
